<?xml version="1.0" encoding="UTF-8"?>
<svg xmlns="http://www.w3.org/2000/svg" xmlns:xlink="http://www.w3.org/1999/xlink" version="1.1" id="Layer_1" x="0px" y="0px" viewBox="0 0 612 607.09" style="enable-background:new 0 0 612 607.09;" xml:space="preserve">
<style type="text/css">
	.st0{fill:#FFB71B;}
	.st1{fill:#010101;}
</style>
<circle class="st0" cx="305.58" cy="303.15" r="296.82"></circle>
<g>
	<g>
		<path class="st1" d="M160.15,275.25c-2.83,0-8.57-0.28-14.53-0.28c-7.22,0-12.18,0.28-14.71,0.28c-0.42-0.48-0.29-2.43,0-2.81    c3.01-0.29,5.45-0.59,6.9-0.98c3.13-0.58,3.61-2.53,3.7-7.02c0.3-7.61,0.41-28.48,0.41-44.66c0-0.38-0.41-0.79-0.67-0.79    c-1.68-0.09-8.88-0.09-12.6,0c-1.64,0.11-2.92,0.79-4.08,2.73c-1.18,1.87-2.44,5.37-3.81,9.08c-0.39,0.27-2.82-0.3-3.02-0.79    c0.78-4.09,1.76-11.88,1.93-16.07c0-0.21,0.86-0.5,1.08-0.41c1.76,0.9,4.3,1.46,7.89,1.46h36.08c4.47,0,6.63-0.18,9.46-1.46    c0.3,0,0.87,0.3,0.98,0.5c-0.98,3.41-1.77,11.21-2.25,16.47c-0.31,0.48-2.82,0.48-3.12,0.1c-0.29-3.43-0.79-6.83-1.55-8.68    c-0.8-1.96-1.96-2.71-3.82-2.82c-4.58-0.11-11.42-0.11-13.65,0c-0.31,0.11-0.49,0.48-0.49,0.77c0,14.33,0,41.35,0.29,46.32    c0.28,3.43,1.08,4.6,3.32,5.17c1.56,0.49,3.21,0.68,6.62,1.08C160.82,272.93,160.64,275.08,160.15,275.25"></path>
		<g>
			<path class="st1" d="M183.74,215.62c2,0,7.44,0.28,12.41,0.28c4.96,0,9.45-0.28,11.84-0.28c0.29,0.38,0.4,2.19,0.08,2.66     c-2.09,0.3-3.71,0.48-4.85,0.76c-2.2,0.57-2.58,1.81-2.77,4.77c-0.28,4.02-0.18,12.04-0.18,20.35c0,9.45,0,18.6,0.18,21.96     c0.1,2.77,0.47,4.38,3.34,5.06c1.34,0.38,3.34,0.67,5.64,0.95c0.38,0.39,0.19,2.49-0.19,2.78c-2.31,0-7.63-0.29-12.33-0.29     c-5.43,0-10.21,0.29-13.26,0.29c-0.48-0.29-0.48-2.49-0.1-2.78c2.1-0.19,3.52-0.37,4.87-0.75c2.75-0.58,3.14-1.92,3.35-4.11     c0.37-2.67,0.37-12.53,0.37-25.01c0-7.85,0-14.07-0.29-18.53c-0.19-2.4-0.37-3.83-2.38-4.41c-1.42-0.47-3.25-0.65-5.82-1.04     C183.25,217.9,183.46,215.9,183.74,215.62"></path>
			<path class="st1" d="M216.86,215.62c2.39,0,7.16,0.28,11.92,0.28c1.91,0,3.55,0,4.31-0.1c0.37,0.96,0.96,2.01,3.44,5.16     c9.73,12.22,29.31,36.1,33.89,41.45c0.19,0.09,0.27,0,0.37-0.1c0-13.06,0.09-30.93-0.37-37.8c-0.2-2.78-0.75-4.3-3.64-5.07     c-1.71-0.48-3.82-0.85-6.38-1.14c-0.41-0.38-0.3-2.38,0-2.66c2.45,0,6.87,0.28,12.67,0.28c3.26,0,8.88-0.28,10.15-0.28     c0.36,0.28,0.36,2.28,0,2.66c-1.71,0.3-2.96,0.58-4.21,0.93c-2.48,0.88-3.04,2.6-3.25,5.17c-0.58,7.36-0.47,19.58-0.76,37.62     c0,4.39,0.1,9.94,0.18,13.09c-1.03-0.08-5.43-0.08-6.58,0c-5.06-7.26-31.33-40.11-37.05-47.25c-0.1-0.09-0.37,0-0.37,0.1     c-0.19,9.82-0.19,32.15,0.08,37.51c0.19,3.84,1.45,5.16,3.92,5.73c1.45,0.47,3.34,0.67,5.73,0.95c0.38,0.39,0.08,2.39-0.19,2.78     c-2.29,0-6.59-0.29-11.94-0.29c-5.81,0-9.46,0.29-11.45,0.29c-0.3-0.29-0.3-2.49,0-2.78c2.1-0.19,3.63-0.47,5.07-0.84     c2.19-0.69,3.44-1.91,3.61-5.63c0.4-4.97,0.69-20.54,0.88-40.61c0-1.42-0.48-3.52-2.57-4.67c-1.84-1.25-3.92-1.7-7.65-2.1     C216.37,218,216.49,215.9,216.86,215.62"></path>
			<path class="st1" d="M337.4,268.81c5.93-4.79,8.03-12.73,8.03-21.5c0-10.32-3.44-20.26-10.99-25.5     c-3.41-2.39-7.55-3.81-12.48-3.81c-3.36,0-6.23,0.76-8.62,2.1c-6.97,4.11-10.22,12.69-10.22,22.44     c0,10.01,3.73,20.89,12.15,26.35c3.33,2.09,7.06,3.23,11.92,3.23C331.21,272.12,334.94,270.89,337.4,268.81 M301.98,267.64     c-5.73-6.3-8.22-14.32-8.22-22.91c0-7.07,2.11-13.19,5.95-18.43c5.26-7.27,15.65-12.11,25.48-12.11     c19.49,0,29.31,14.21,29.31,29.77c0,8.41-1.89,14.42-5.84,19.85c-5.88,8.22-15.55,12.53-25.07,12.53     C314.4,276.35,306.96,272.98,301.98,267.64"></path>
			<path class="st1" d="M412.31,219.72c-3.13-1.54-7.25-2.11-11.84-2.11c-13.85,0-21.77,10.22-21.77,26.35     c0,15.28,8.51,28.16,25.49,28.16c4.1,0,8.11-1.04,10.51-3.23c2.38-1.92,4.67-5.15,7.15-9.37c0.49,0,2.12,0.86,2.31,1.54     c-0.97,4.11-5.07,11.54-7.27,12.86c-2.76,0.97-8.76,2.41-14.6,2.41c-21.29,0-33.13-11.67-33.13-31.54     c0-10.29,4.67-20.6,15.18-26.23c5.06-2.78,11.25-4.38,19.37-4.38c8.13,0,14.52,1.59,18.81,1.89c-0.56,3.33-1.43,10.4-1.51,14.7     c-0.4,0.38-2.86,0.68-2.97,0.18C417.1,223.36,415.86,221.43,412.31,219.72"></path>
			<path class="st1" d="M478.66,268.81c5.92-4.79,8.01-12.73,8.01-21.5c0-10.32-3.44-20.26-10.97-25.5     c-3.47-2.39-7.57-3.81-12.52-3.81c-3.34,0-6.22,0.76-8.6,2.1c-6.97,4.11-10.22,12.69-10.22,22.44c0,10.01,3.74,20.89,12.11,26.35     c3.36,2.09,7.08,3.23,11.94,3.23C472.43,272.12,476.16,270.89,478.66,268.81 M443.22,267.64c-5.73-6.3-8.19-14.32-8.19-22.91     c0-7.07,2.07-13.19,5.91-18.43c5.24-7.27,15.63-12.11,25.49-12.11c19.48,0,29.29,14.21,29.29,29.77c0,8.41-1.91,14.42-5.81,19.85     c-5.93,8.22-15.57,12.53-25.13,12.53C455.65,276.35,448.17,272.98,443.22,267.64"></path>
		</g>
	</g>
	<g>
		<path class="st1" d="M125.92,343.96c-2.84,0-8.61-0.29-14.55-0.29c-7.25,0-12.23,0.29-14.77,0.29c-0.4-0.49-0.29-2.45,0-2.84    c3.01-0.28,5.45-0.59,6.93-0.98c3.14-0.59,3.63-2.55,3.72-7.03c0.29-7.63,0.4-28.54,0.4-44.79c0-0.39-0.4-0.78-0.7-0.78    c-1.66-0.1-8.91-0.1-12.61,0c-1.68,0.1-2.93,0.78-4.11,2.73c-1.18,1.86-2.46,5.38-3.81,9.08c-0.4,0.31-2.84-0.29-3.05-0.78    c0.8-4.1,1.78-11.9,1.98-16.12c0-0.2,0.87-0.49,1.08-0.39c1.77,0.88,4.3,1.47,7.92,1.47h36.18c4.49,0,6.63-0.2,9.48-1.47    c0.29,0,0.89,0.29,0.97,0.49c-0.97,3.42-1.77,11.25-2.25,16.52c-0.29,0.49-2.83,0.49-3.13,0.1c-0.29-3.43-0.79-6.84-1.56-8.72    c-0.78-1.94-1.95-2.71-3.81-2.82c-4.6-0.1-11.44-0.1-13.7,0c-0.31,0.11-0.49,0.49-0.49,0.77c0,14.39,0,41.47,0.29,46.46    c0.29,3.42,1.07,4.59,3.34,5.19c1.55,0.48,3.23,0.67,6.64,1.07C126.61,341.6,126.42,343.76,125.92,343.96"></path>
		<g>
			<path class="st1" d="M223.48,315.07c0,0.37,0.08,0.66,0.37,0.75c0.97,0.1,4.01,0.1,7.74,0.1c2.31,0,5.37,0,6.31-0.1     c0.21,0,0.48-0.37,0.38-0.75c-1.99-5.95-5.54-16.46-7.17-20.56c-0.08,0-0.38,0-0.47,0.06L223.48,315.07z M166.97,288.08     c-0.29,0.19-0.66,0.96-0.66,1.43c-0.22,3.27-0.22,16.28-0.22,23.73c0,0.19,0.22,0.48,0.39,0.48c6.52,0.19,10.62,0,12.35-0.77     c3.06-1.34,6.3-4.58,6.3-11.2c0-8.88-4.59-14.15-14.82-14.15C169.53,287.6,167.91,287.7,166.97,288.08 M149.73,284.27     c2.31,0,8.05,0.28,11,0.28c7.08,0,12.15-0.2,15.98-0.2c11.19,0,17.01,6.89,17.01,14.92c0,7.75-4.95,12.62-10.88,15.19     c-0.2,0.2-0.29,0.5-0.2,0.68c3.35,5.38,11.19,15.88,15.87,20.75c2.21,2.3,4.51,3.92,7.95,4.02c1.91-0.1,2.94-0.68,4.66-4.79     c4.88-11.55,15.21-39,17.31-45.04c0.69-2.11,1.46-4.32,1.63-5.64c0.39,0,1.44,0.1,3.07,0.1c1.9,0,2.89-0.1,3.26-0.1     c0.29,1.44,0.84,3.25,1.41,5.06c1.92,5.46,12.53,35.68,15.89,43.62c2.86,6.4,3.53,6.9,10.34,7.73c0.36,0.29,0.08,2.49-0.21,2.79     c-2.4-0.1-7.34-0.29-11.56-0.29c-4.71,0-10.62,0.19-12.63,0.29c-0.3-0.39-0.4-2.39,0-2.79c1.91-0.19,3.83-0.57,5.16-1.05     c1.34-0.58,1.41-1.55,1.14-2.38c-1.14-4.1-4.1-12.12-5.74-16.44c-0.08-0.29-0.67-0.69-0.87-0.69c-1.43-0.08-4.78,0-9.07,0     c-6.02,0-6.79-0.08-7.84,0c-0.39,0-0.96,0.57-0.96,0.88c-2.02,5.17-5.06,13.2-5.17,15.47c-0.11,1.61,0,2.78,2.97,3.46     c1.25,0.28,2.59,0.47,4.59,0.75c0.29,0.39,0.09,2.39-0.19,2.79c-1.92,0-4.11-0.29-11-0.29c-3.07,0-9.94,0.29-12.62,0.29     c-5.06,0-7.36-1.62-10.89-5.46c-3.67-4.29-9.95-13.96-13.59-19.12c-0.68-0.97-1.53-1.45-2.3-1.45c-1.34-0.09-5.45-0.09-6.79-0.09     c-0.17,0-0.39,0.5-0.39,0.56c0,5.27,0,14.17,0.22,17.32c0.17,3.24,0.84,4.11,3.05,4.6c1.43,0.27,3.14,0.56,5.35,0.84     c0.47,0.39,0.29,2.39-0.19,2.79c-2.01,0-6.5-0.29-12.72-0.29c-6.21,0-10.32,0.29-12.15,0.29c-0.48-0.39-0.48-2.39,0-2.79     c2.11-0.28,3.64-0.47,4.88-0.75c2.29-0.48,3.06-1.64,3.26-5.26c0.08-2.2,0.18-15.21,0.18-20.47c0-9.75,0-19.32-0.1-22.28     c-0.08-2.66-0.75-3.83-3.17-4.4c-1.41-0.28-3.23-0.56-5.16-0.77C149.16,286.56,149.36,284.45,149.73,284.27"></path>
			<path class="st1" d="M257.74,284.27c2.29,0,7.57,0.28,11.66,0.28c5.74,0,10.81-0.28,12.25-0.28c0.48,0.18,0.57,2.39,0.1,2.66     c-2.11,0.4-3.74,0.77-5.01,1.05c-1.6,0.4-1.78,1.63-1.29,2.99c2.85,8.21,13.75,37.37,15.58,41.68c0.1,0,0.27,0,0.47-0.1     c2.29-5.25,12.45-30.79,15.11-39.1c1.14-3.54,0.68-4.98-2.19-5.58l-5.17-0.94c-0.29-0.38-0.1-2.49,0.28-2.66     c1.55,0,5.36,0.28,11.31,0.28c5.06,0,7.74-0.28,10.02-0.28c0.4,0.28,0.4,2.28,0,2.66c-1.62,0.3-2.96,0.58-4.21,0.94     c-2.98,0.98-3.81,2.9-6.11,8.25c-2.95,6.78-9.39,22.74-14.16,34.6c-2.28,5.75-4.01,10.53-4.97,13.49c-1.42-0.28-4.29-0.28-5.72,0     c-0.98-3.72-2.31-8.03-4.12-13c-4.82-12.89-10.71-28.69-13.49-35.77c-2.19-5.26-3.25-6.8-6.12-7.66     c-1.25-0.28-2.68-0.56-4.51-0.85C257.08,286.56,257.29,284.45,257.74,284.27"></path>
			<path class="st1" d="M324.84,284.27c2.01,0,7.46,0.28,12.45,0.28c4.97,0,9.46-0.28,11.85-0.28c0.31,0.38,0.4,2.19,0.08,2.66     c-2.07,0.3-3.71,0.48-4.87,0.77c-2.18,0.57-2.58,1.81-2.76,4.78c-0.29,4.03-0.19,12.06-0.19,20.38c0,9.46,0,18.63,0.19,22     c0.09,2.77,0.48,4.39,3.35,5.06c1.36,0.38,3.34,0.67,5.63,0.95c0.39,0.39,0.2,2.49-0.18,2.79c-2.3,0-7.66-0.29-12.34-0.29     c-5.47,0-10.25,0.29-13.3,0.29c-0.48-0.29-0.48-2.49-0.12-2.79c2.14-0.19,3.57-0.37,4.9-0.75c2.77-0.58,3.15-1.92,3.33-4.11     c0.41-2.67,0.41-12.55,0.41-25.05c0-7.87,0-14.09-0.3-18.56c-0.2-2.41-0.39-3.84-2.39-4.41c-1.43-0.47-3.28-0.65-5.84-1.05     C324.37,286.56,324.56,284.55,324.84,284.27"></path>
			<path class="st1" d="M360.03,284.16c2.38,0,7.34,0.39,12.71,0.39h18.82c3.66,0,8.65-0.1,10.64-0.39     c0.11,0.11,0.38,0.39,0.38,0.49c-0.78,2.86-1.44,9.28-1.73,13.1c-0.36,0.46-2.69,0.46-2.96,0.2c-0.3-2.79-0.65-4.43-1.06-5.86     c-0.77-2.28-1.62-3.34-4.77-3.63c-1.83-0.08-13.39-0.08-14.64,0c-0.65,0.18-1.13,1.35-1.13,1.82     c-0.09,5.35-0.09,15.97-0.09,20.27c0,0.3,0.17,0.68,0.47,0.68c3.81,0.07,11.2,0.07,14.63-0.19c2.11-0.19,2.8-1.35,3.26-2.88     c0.39-1.04,0.75-2.38,1.04-3.84c0.56-0.27,2.78-0.17,3.16,0.3c-0.29,1.91-0.67,5.65-0.67,8.98c0,3.55,0.07,6.32,0.19,8.71     c-0.47,0.48-2.78,0.57-3.25,0.1c-0.3-2.02-0.39-2.78-0.78-3.93c-0.37-1.33-1.03-2.58-3.25-2.77c-2.86-0.28-10.78-0.28-14.33-0.2     c-0.2,0-0.47,0.49-0.47,0.78c0,4.4,0,14.54,0.17,19.13c0,1.9,1.06,3.24,2.21,3.62c1.89,0.49,10.23,0.58,14.16,0.58     c4.1-0.09,5.35-0.96,7.07-3.15c1.52-1.72,3.53-5.54,4.79-8.41c0.47-0.09,2.38,0.57,2.78,1.05c-0.49,2.96-2.59,10.23-4.04,13.12     c-0.56,1.02-1.14,1.52-5.93,1.52c-8.03,0-14.93-0.39-24.87-0.39c-6.39,0-11.18,0.29-15.11,0.29c-0.39-0.29-0.48-2.3-0.1-2.79     c2.98-0.28,5.55-0.47,7.27-0.95c2.3-0.58,2.96-1.81,3.25-5.17c0.09-1.82,0.09-12.33,0.09-23.14c0-8.71,0-17.23-0.09-18.94     c-0.2-3.45-0.58-4.29-2.87-4.89c-1.24-0.36-2.86-0.65-5.08-0.95C359.46,286.47,359.63,284.65,360.03,284.16"></path>
			<path class="st1" d="M426.85,338.97c2.39,1.82,5.74,2.59,9.37,2.59c4.87,0,10.23-2.88,10.23-10.06c0-6.31-3.91-9.26-12.55-14.33     c-8.5-4.88-14.23-9.57-14.23-18.18c0-10.22,8.41-16.13,18.82-16.13c6.62,0,10.51,1.21,14.56,1.6c-0.69,3.15-1.25,8.52-1.66,13.22     c-0.25,0.54-2.45,0.54-2.77,0.09c-0.57-5.66-1.41-8.32-3.71-9.88c-2.11-1.5-4.88-1.99-7.73-1.99c-6.62,0-9.96,5.09-10.06,9.75     c0,5.38,2.49,8.13,6.48,10.91c3.85,2.48,8.61,4.77,11.87,6.7c4.97,3.15,9.17,7.16,9.17,14.14c0,9.38-7.72,17.71-21.23,17.71     c-5.74,0-11.48-1.83-13.75-2.97c-0.85-1.25-2.41-11.09-2.69-14.35c0.2-0.57,2.49-1.15,2.97-0.86     C421.68,332.84,423.59,336.66,426.85,338.97"></path>
			<path class="st1" d="M510.67,337.55c5.94-4.79,8.04-12.75,8.04-21.53c0-10.33-3.45-20.3-11-25.54     c-3.43-2.39-7.54-3.81-12.53-3.81c-3.35,0-6.21,0.76-8.62,2.1c-6.95,4.12-10.22,12.71-10.22,22.48c0,10.02,3.73,20.92,12.16,26.4     c3.32,2.1,7.06,3.23,11.95,3.23C504.46,340.87,508.2,339.63,510.67,337.55 M475.21,336.38c-5.76-6.31-8.24-14.35-8.24-22.94     c0-7.08,2.12-13.21,5.92-18.46c5.27-7.28,15.69-12.13,25.56-12.13c19.49,0,29.35,14.23,29.35,29.81c0,8.43-1.91,14.44-5.82,19.88     c-5.93,8.24-15.59,12.55-25.17,12.55C487.64,345.09,480.17,341.72,475.21,336.38"></path>
		</g>
	</g>
	<path class="st1" d="M230.98,390.31c-1.32,0-3.41-0.16-6.55-0.16c-3.23,0-5.76,0.16-7.06,0.16c-0.18-0.16-0.18-1.23,0-1.42   c1.14-0.11,2.17-0.19,3-0.34c1.51-0.3,1.8-1.09,1.8-2.7c0.1-2.27,0.15-6.37,0.15-10.55c0-4.63-0.1-8.76-0.15-9.68   c-0.1-0.67-0.3-1.37-1.33-1.48c-0.56-0.03-1.78-0.15-2.82-0.15c-0.15-0.18-0.05-1.18,0.1-1.26c2.52-0.31,6.1-1.37,7.77-2.3   c0.2-0.05,0.59,0.05,0.63,0.19c-0.2,1.52-0.25,2.75-0.25,11.75c0,2.58,0.05,11.44,0.15,13.3c0.09,1.65,0.41,2.53,1.66,2.84   c0.89,0.19,1.65,0.23,3.08,0.43C231.29,389.08,231.18,390.15,230.98,390.31"></path>
	<path class="st1" d="M270.03,368.97c0,5.59,3.22,8.05,6.76,8.05c1.47,0,2.78-0.46,3.71-1.06c0.4-0.21,0.78-0.75,0.88-1.12   c0.24-1.16,0.28-2.03,0.28-2.87c0-5.44-2.58-9.69-6.4-9.69C272.13,362.29,270.03,365.03,270.03,368.97 M267.58,391.47   c7.83-3.62,11.29-8.52,13.24-13.84c0.07-0.09-0.09-0.24-0.2-0.14c-2.13,1.37-5.11,2.46-7.04,2.46c-3.91,0-7.53-3.75-7.53-8.96   c0-3.37,1.62-6.66,4.56-8.65c1.68-1.13,3.87-1.86,6.01-1.86c5.97,0,9.38,5.28,9.38,11.57c0,9.82-7.83,17.57-17.79,20.73   C267.98,392.74,267.52,391.71,267.58,391.47"></path>
	<path class="st1" d="M332.68,390.31c-1.31,0-3.41-0.16-6.56-0.16c-3.21,0-5.78,0.16-7.02,0.16c-0.2-0.16-0.2-1.23,0-1.42   c1.14-0.11,2.14-0.19,2.97-0.34c1.52-0.3,1.8-1.09,1.8-2.7c0.12-2.27,0.17-6.37,0.17-10.55c0-4.63-0.1-8.76-0.17-9.68   c-0.08-0.67-0.29-1.37-1.31-1.48c-0.59-0.03-1.8-0.15-2.83-0.15c-0.16-0.18-0.05-1.18,0.08-1.26c2.55-0.31,6.11-1.37,7.8-2.3   c0.18-0.05,0.57,0.05,0.61,0.19c-0.19,1.52-0.23,2.75-0.23,11.75c0,2.58,0.05,11.44,0.15,13.3c0.09,1.65,0.4,2.53,1.65,2.84   c0.91,0.19,1.67,0.23,3.09,0.43C332.98,389.08,332.87,390.15,332.68,390.31"></path>
	<path class="st1" d="M371.69,378.96h4.49c0.08,0,0.17-0.15,0.17-0.3l0.21-12.9c0-0.1-0.14-0.1-0.21-0.05   c-1.26,1.72-8.08,11.45-8.94,12.92c-0.04,0.09,0,0.25,0.06,0.25C368.45,378.92,369.91,378.96,371.69,378.96 M380.63,381.74   c-0.09,0-0.2,0.13-0.26,0.31l0.1,9.37c-1.31,0.05-3.26,0.26-4.21,0.5c0.06-3.22,0.1-6.65,0.1-9.9c0-0.16-0.1-0.27-0.17-0.27h-12.37   c-0.05-0.2,0.04-1.36,0.14-1.57c3.13-4.53,12.57-17.12,13.98-19.24c0.29-0.12,2.18-0.39,2.39-0.35v17.98c0,0.09,0.1,0.3,0.26,0.3   c2.53,0,4.19-0.05,5.63-0.1c-0.31,0.93-0.65,2.29-0.65,3.02C383.94,381.79,382.3,381.74,380.63,381.74"></path>
	<rect x="98.41" y="374.5" class="st1" width="97.17" height="4.03"></rect>
	<rect x="409.07" y="374.5" class="st1" width="97.17" height="4.03"></rect>
</g>
</svg>
