<?xml version="1.0" encoding="UTF-8"?>
<svg xmlns="http://www.w3.org/2000/svg" xmlns:xlink="http://www.w3.org/1999/xlink" version="1.1" id="Layer_1" x="0px" y="0px" viewBox="0 0 649.36 105.13" style="enable-background:new 0 0 649.36 105.13;" xml:space="preserve">
<style type="text/css">
	.st0{fill:#231F20;}
	.st1{fill:#5B5C5E;}
	.st2{fill:#FFB71B;}
</style>
<g>
	<g>
		<path class="st0" d="M40.47,39.93c-1.06,0-3.19-0.1-5.41-0.1c-2.69,0-4.54,0.1-5.48,0.1c-0.16-0.18-0.11-0.91,0-1.05    c1.12-0.11,2.03-0.22,2.57-0.37c1.16-0.22,1.34-0.94,1.38-2.61c0.11-2.83,0.15-10.61,0.15-16.63c0-0.14-0.15-0.29-0.25-0.29    c-0.63-0.03-3.31-0.03-4.69,0c-0.61,0.04-1.09,0.29-1.52,1.02c-0.44,0.7-0.91,2-1.42,3.38c-0.14,0.1-1.05-0.11-1.12-0.29    c0.29-1.52,0.66-4.43,0.72-5.99c0-0.08,0.32-0.19,0.4-0.15c0.66,0.33,1.6,0.55,2.94,0.55h13.44c1.67,0,2.47-0.07,3.52-0.55    c0.11,0,0.33,0.11,0.37,0.19c-0.37,1.27-0.66,4.18-0.84,6.14c-0.11,0.18-1.05,0.18-1.16,0.04c-0.11-1.28-0.29-2.55-0.58-3.23    c-0.3-0.73-0.73-1.01-1.42-1.05c-1.71-0.04-4.25-0.04-5.09,0c-0.12,0.04-0.18,0.18-0.18,0.29c0,5.34,0,15.4,0.11,17.25    c0.1,1.28,0.4,1.71,1.24,1.93c0.58,0.18,1.2,0.25,2.47,0.4C40.72,39.06,40.65,39.87,40.47,39.93"></path>
		<path class="st0" d="M49.22,22.29c0.59,0,2.21,0.08,3.69,0.08c1.48,0,2.81-0.08,3.52-0.08c0.08,0.11,0.12,0.65,0.02,0.79    c-0.62,0.09-1.1,0.14-1.44,0.23c-0.66,0.17-0.77,0.54-0.82,1.42c-0.08,1.2-0.05,3.58-0.05,6.05c0,2.81,0,5.53,0.05,6.53    c0.03,0.82,0.14,1.3,0.99,1.5c0.4,0.11,0.99,0.2,1.68,0.28c0.11,0.12,0.06,0.74-0.06,0.83c-0.69,0-2.27-0.09-3.66-0.09    c-1.61,0-3.03,0.09-3.94,0.09c-0.14-0.09-0.14-0.74-0.03-0.83c0.62-0.06,1.05-0.11,1.45-0.22c0.82-0.17,0.93-0.57,0.99-1.22    c0.11-0.79,0.11-3.72,0.11-7.43c0-2.33,0-4.18-0.08-5.51c-0.06-0.71-0.11-1.14-0.71-1.31c-0.42-0.14-0.97-0.19-1.73-0.31    C49.08,22.96,49.14,22.37,49.22,22.29"></path>
		<path class="st0" d="M59.07,22.29c0.71,0,2.13,0.08,3.54,0.08c0.57,0,1.06,0,1.28-0.03c0.11,0.28,0.28,0.6,1.02,1.53    c2.89,3.63,8.71,10.73,10.07,12.32c0.06,0.03,0.08,0,0.11-0.03c0-3.88,0.03-9.19-0.11-11.24c-0.06-0.83-0.22-1.28-1.08-1.51    c-0.51-0.14-1.14-0.25-1.9-0.34c-0.12-0.11-0.09-0.71,0-0.79c0.73,0,2.04,0.08,3.77,0.08c0.97,0,2.64-0.08,3.02-0.08    c0.11,0.08,0.11,0.68,0,0.79c-0.51,0.09-0.88,0.17-1.25,0.28c-0.74,0.26-0.9,0.77-0.97,1.54c-0.17,2.19-0.14,5.82-0.23,11.18    c0,1.31,0.03,2.95,0.05,3.89c-0.31-0.02-1.61-0.02-1.96,0c-1.5-2.16-9.31-11.92-11.01-14.04c-0.03-0.03-0.11,0-0.11,0.03    c-0.06,2.92-0.06,9.56,0.02,11.15c0.06,1.14,0.43,1.53,1.17,1.7c0.43,0.14,0.99,0.2,1.7,0.28c0.11,0.12,0.02,0.71-0.06,0.83    c-0.68,0-1.96-0.09-3.55-0.09c-1.73,0-2.81,0.09-3.4,0.09c-0.09-0.09-0.09-0.74,0-0.83c0.62-0.06,1.08-0.14,1.51-0.25    c0.65-0.2,1.02-0.57,1.07-1.67c0.12-1.48,0.2-6.11,0.26-12.07c0-0.42-0.14-1.05-0.76-1.39c-0.55-0.37-1.17-0.51-2.27-0.62    C58.92,23,58.96,22.37,59.07,22.29"></path>
		<path class="st0" d="M94.9,38.1c1.76-1.42,2.39-3.78,2.39-6.39c0-3.07-1.02-6.02-3.27-7.58C93,23.42,91.77,23,90.31,23    c-1,0-1.85,0.23-2.56,0.62c-2.07,1.22-3.04,3.77-3.04,6.67c0,2.98,1.11,6.21,3.61,7.83c0.99,0.62,2.1,0.96,3.54,0.96    C93.06,39.08,94.16,38.72,94.9,38.1 M84.37,37.75c-1.7-1.87-2.44-4.26-2.44-6.81c0-2.1,0.63-3.92,1.77-5.48    c1.56-2.16,4.65-3.6,7.57-3.6c5.79,0,8.71,4.22,8.71,8.85c0,2.5-0.56,4.29-1.74,5.9c-1.75,2.44-4.62,3.72-7.45,3.72    C88.06,40.34,85.85,39.34,84.37,37.75"></path>
		<path class="st0" d="M117.16,23.51c-0.93-0.46-2.15-0.63-3.52-0.63c-4.12,0-6.47,3.04-6.47,7.83c0,4.54,2.53,8.37,7.58,8.37    c1.22,0,2.41-0.31,3.13-0.96c0.71-0.57,1.39-1.53,2.12-2.78c0.15,0,0.63,0.25,0.69,0.46c-0.29,1.22-1.51,3.43-2.16,3.82    c-0.82,0.29-2.6,0.72-4.34,0.72c-6.33,0-9.85-3.47-9.85-9.37c0-3.06,1.39-6.12,4.51-7.8c1.5-0.83,3.34-1.3,5.76-1.3    c2.42,0,4.31,0.47,5.59,0.56c-0.17,0.99-0.43,3.09-0.45,4.37c-0.12,0.11-0.85,0.2-0.88,0.05    C118.58,24.59,118.22,24.01,117.16,23.51"></path>
		<path class="st0" d="M136.88,38.1c1.76-1.42,2.38-3.78,2.38-6.39c0-3.07-1.02-6.02-3.26-7.58c-1.03-0.71-2.25-1.13-3.72-1.13    c-0.99,0-1.85,0.23-2.56,0.62c-2.07,1.22-3.04,3.77-3.04,6.67c0,2.98,1.11,6.21,3.6,7.83c1,0.62,2.1,0.96,3.55,0.96    C135.03,39.08,136.14,38.72,136.88,38.1 M126.35,37.75c-1.7-1.87-2.43-4.26-2.43-6.81c0-2.1,0.61-3.92,1.76-5.48    c1.56-2.16,4.65-3.6,7.58-3.6c5.79,0,8.71,4.22,8.71,8.85c0,2.5-0.57,4.29-1.73,5.9c-1.76,2.44-4.63,3.72-7.47,3.72    C130.04,40.34,127.82,39.34,126.35,37.75"></path>
		<path class="st0" d="M143.15,44.25c1.33-1.22,2.38-2.78,2.35-4.37c-0.02-0.68-0.36-1.51-0.85-2.24c0.11-0.31,1.37-1.53,1.7-1.68    c0.08-0.06,0.46-0.06,0.54,0c0.28,0.23,0.71,1.11,0.74,2.27c0.06,2.64-2.04,5.36-3.69,6.41c-0.17,0.03-0.57-0.12-0.74-0.23    C143.17,44.39,143.11,44.28,143.15,44.25"></path>
		<path class="st0" d="M174.03,39.93c-1.02,0-3.1-0.1-5.25-0.1c-2.61,0-4.41,0.1-5.33,0.1c-0.15-0.18-0.11-0.88,0-1.02    c1.08-0.1,1.97-0.21,2.5-0.35c1.13-0.21,1.31-0.92,1.34-2.54c0.1-2.75,0.15-10.29,0.15-16.15c0-0.14-0.15-0.28-0.25-0.28    c-0.6-0.04-3.21-0.04-4.55,0c-0.6,0.03-1.06,0.28-1.48,0.99c-0.42,0.67-0.89,1.94-1.38,3.28c-0.14,0.11-1.03-0.1-1.1-0.28    c0.29-1.48,0.64-4.29,0.71-5.81c0-0.07,0.31-0.18,0.39-0.14c0.64,0.32,1.55,0.53,2.86,0.53h13.05c1.62,0,2.39-0.07,3.42-0.53    c0.11,0,0.32,0.11,0.35,0.18c-0.35,1.23-0.64,4.06-0.81,5.96c-0.1,0.18-1.02,0.18-1.13,0.04c-0.1-1.24-0.28-2.47-0.56-3.14    c-0.28-0.7-0.7-0.98-1.37-1.02c-1.66-0.03-4.13-0.03-4.94,0c-0.11,0.04-0.18,0.18-0.18,0.28c0,5.19,0,14.96,0.1,16.76    c0.11,1.23,0.39,1.66,1.2,1.87c0.56,0.17,1.16,0.24,2.4,0.39C174.28,39.08,174.21,39.86,174.03,39.93"></path>
		<path class="st0" d="M204.47,31.43c0,0.11,0.02,0.2,0.11,0.22c0.29,0.03,1.19,0.03,2.3,0.03c0.68,0,1.59,0,1.87-0.03    c0.06,0,0.14-0.11,0.11-0.22c-0.59-1.76-1.65-4.88-2.13-6.1c-0.02,0-0.11,0-0.14,0.02L204.47,31.43z M187.7,23.42    c-0.09,0.06-0.2,0.28-0.2,0.42c-0.07,0.97-0.07,4.83-0.07,7.04c0,0.06,0.07,0.14,0.11,0.14c1.93,0.06,3.15,0,3.67-0.23    c0.91-0.4,1.87-1.36,1.87-3.32c0-2.64-1.36-4.2-4.4-4.2C188.46,23.28,187.98,23.3,187.7,23.42 M182.59,22.29    c0.68,0,2.39,0.08,3.27,0.08c2.1,0,3.61-0.06,4.74-0.06c3.32,0,5.05,2.05,5.05,4.43c0,2.3-1.47,3.75-3.23,4.51    c-0.06,0.06-0.08,0.15-0.06,0.2c0.99,1.6,3.32,4.71,4.71,6.16c0.66,0.68,1.34,1.16,2.36,1.19c0.57-0.03,0.87-0.2,1.38-1.42    c1.45-3.43,4.51-11.57,5.14-13.37c0.2-0.63,0.43-1.28,0.48-1.67c0.12,0,0.43,0.03,0.91,0.03c0.57,0,0.86-0.03,0.97-0.03    c0.08,0.43,0.25,0.97,0.42,1.5c0.57,1.62,3.72,10.59,4.71,12.95c0.85,1.9,1.05,2.05,3.07,2.3c0.11,0.09,0.02,0.74-0.06,0.83    c-0.71-0.03-2.18-0.09-3.43-0.09c-1.4,0-3.15,0.06-3.75,0.09c-0.09-0.12-0.12-0.71,0-0.83c0.57-0.06,1.14-0.17,1.53-0.31    c0.4-0.17,0.42-0.46,0.34-0.71c-0.34-1.22-1.22-3.6-1.7-4.88c-0.02-0.09-0.2-0.2-0.26-0.2c-0.42-0.02-1.42,0-2.69,0    c-1.79,0-2.01-0.02-2.33,0c-0.12,0-0.29,0.17-0.29,0.26c-0.6,1.53-1.5,3.92-1.53,4.59c-0.03,0.48,0,0.82,0.88,1.03    c0.37,0.08,0.77,0.14,1.36,0.22c0.09,0.12,0.03,0.71-0.06,0.83c-0.57,0-1.22-0.09-3.26-0.09c-0.91,0-2.95,0.09-3.75,0.09    c-1.5,0-2.18-0.48-3.23-1.62c-1.09-1.27-2.95-4.14-4.03-5.67c-0.2-0.29-0.45-0.43-0.68-0.43c-0.4-0.03-1.62-0.03-2.02-0.03    c-0.05,0-0.11,0.15-0.11,0.17c0,1.57,0,4.21,0.07,5.14c0.05,0.96,0.25,1.22,0.91,1.37c0.42,0.08,0.93,0.16,1.59,0.25    c0.14,0.12,0.08,0.71-0.06,0.83c-0.6,0-1.93-0.09-3.78-0.09c-1.84,0-3.06,0.09-3.61,0.09c-0.14-0.12-0.14-0.71,0-0.83    c0.63-0.08,1.08-0.14,1.45-0.22c0.68-0.14,0.91-0.49,0.97-1.56c0.02-0.65,0.05-4.51,0.05-6.08c0-2.89,0-5.73-0.03-6.61    c-0.02-0.79-0.22-1.14-0.94-1.31c-0.42-0.08-0.96-0.17-1.53-0.23C182.42,22.96,182.48,22.34,182.59,22.29"></path>
		<path class="st0" d="M214.64,22.29c0.68,0,2.25,0.08,3.46,0.08c1.7,0,3.21-0.08,3.64-0.08c0.14,0.05,0.17,0.71,0.03,0.79    c-0.63,0.12-1.11,0.23-1.49,0.31c-0.48,0.12-0.53,0.48-0.38,0.89c0.84,2.44,4.08,11.09,4.62,12.37c0.03,0,0.08,0,0.14-0.03    c0.68-1.56,3.69-9.14,4.48-11.6c0.34-1.05,0.2-1.48-0.65-1.65l-1.54-0.28c-0.09-0.11-0.03-0.74,0.08-0.79    c0.46,0,1.59,0.08,3.36,0.08c1.5,0,2.3-0.08,2.97-0.08c0.12,0.08,0.12,0.68,0,0.79c-0.48,0.09-0.88,0.17-1.25,0.28    c-0.88,0.29-1.13,0.86-1.81,2.45c-0.88,2.01-2.79,6.75-4.2,10.27c-0.68,1.71-1.19,3.13-1.48,4c-0.42-0.08-1.27-0.08-1.7,0    c-0.29-1.1-0.69-2.38-1.22-3.86c-1.43-3.82-3.18-8.51-4-10.62c-0.65-1.56-0.96-2.02-1.82-2.27c-0.37-0.08-0.8-0.16-1.34-0.25    C214.45,22.96,214.51,22.34,214.64,22.29"></path>
		<path class="st0" d="M234.56,22.29c0.6,0,2.22,0.08,3.69,0.08c1.48,0,2.81-0.08,3.52-0.08c0.09,0.11,0.12,0.65,0.02,0.79    c-0.61,0.09-1.1,0.14-1.45,0.23c-0.65,0.17-0.76,0.54-0.82,1.42c-0.08,1.2-0.06,3.58-0.06,6.05c0,2.81,0,5.53,0.06,6.53    c0.03,0.82,0.14,1.3,0.99,1.5c0.4,0.11,0.99,0.2,1.67,0.28c0.11,0.12,0.06,0.74-0.05,0.83c-0.68,0-2.27-0.09-3.66-0.09    c-1.62,0-3.04,0.09-3.95,0.09c-0.14-0.09-0.14-0.74-0.04-0.83c0.63-0.06,1.06-0.11,1.46-0.22c0.82-0.17,0.93-0.57,0.99-1.22    c0.12-0.79,0.12-3.72,0.12-7.43c0-2.33,0-4.18-0.09-5.51c-0.06-0.71-0.12-1.14-0.71-1.31c-0.42-0.14-0.97-0.19-1.73-0.31    C234.42,22.96,234.47,22.37,234.56,22.29"></path>
		<path class="st0" d="M245,22.25c0.71,0,2.18,0.11,3.77,0.11h5.59c1.08,0,2.57-0.03,3.16-0.11c0.03,0.03,0.11,0.11,0.11,0.15    c-0.23,0.85-0.43,2.75-0.51,3.89c-0.11,0.14-0.8,0.14-0.88,0.06c-0.09-0.83-0.19-1.32-0.31-1.74c-0.23-0.68-0.48-0.99-1.42-1.08    c-0.54-0.02-3.97-0.02-4.35,0c-0.19,0.05-0.34,0.4-0.34,0.54c-0.03,1.59-0.03,4.74-0.03,6.02c0,0.09,0.05,0.2,0.14,0.2    c1.13,0.02,3.32,0.02,4.34-0.06c0.63-0.06,0.83-0.4,0.97-0.85c0.12-0.31,0.22-0.71,0.31-1.14c0.16-0.08,0.83-0.05,0.94,0.09    c-0.09,0.57-0.2,1.68-0.2,2.67c0,1.05,0.02,1.88,0.06,2.58c-0.14,0.14-0.83,0.17-0.96,0.03c-0.09-0.6-0.11-0.83-0.23-1.17    c-0.11-0.4-0.31-0.76-0.97-0.82c-0.85-0.08-3.2-0.08-4.25-0.06c-0.06,0-0.14,0.15-0.14,0.23c0,1.31,0,4.31,0.05,5.68    c0,0.56,0.31,0.96,0.66,1.07c0.56,0.15,3.04,0.17,4.2,0.17c1.22-0.03,1.59-0.29,2.1-0.94c0.45-0.51,1.05-1.64,1.42-2.5    c0.14-0.03,0.71,0.17,0.83,0.31c-0.15,0.88-0.77,3.04-1.2,3.89c-0.17,0.3-0.34,0.45-1.76,0.45c-2.38,0-4.43-0.12-7.38-0.12    c-1.9,0-3.32,0.09-4.48,0.09c-0.11-0.09-0.14-0.68-0.03-0.83c0.88-0.08,1.65-0.14,2.16-0.28c0.68-0.17,0.88-0.54,0.97-1.53    c0.03-0.54,0.03-3.66,0.03-6.87c0-2.59,0-5.11-0.03-5.62c-0.06-1.02-0.17-1.27-0.85-1.45c-0.37-0.11-0.85-0.19-1.51-0.28    C244.83,22.94,244.88,22.4,245,22.25"></path>
		<path class="st0" d="M264.83,38.52c0.71,0.54,1.7,0.77,2.78,0.77c1.45,0,3.04-0.86,3.04-2.98c0-1.87-1.16-2.75-3.72-4.25    c-2.52-1.45-4.22-2.84-4.22-5.39c0-3.03,2.49-4.79,5.59-4.79c1.97,0,3.12,0.36,4.32,0.47c-0.21,0.94-0.37,2.53-0.49,3.92    c-0.07,0.16-0.73,0.16-0.82,0.03c-0.17-1.68-0.42-2.47-1.1-2.93c-0.63-0.44-1.45-0.59-2.29-0.59c-1.97,0-2.96,1.51-2.98,2.89    c0,1.6,0.74,2.41,1.92,3.24c1.14,0.74,2.56,1.41,3.52,1.99c1.48,0.94,2.72,2.13,2.72,4.2c0,2.78-2.29,5.26-6.3,5.26    c-1.7,0-3.41-0.54-4.08-0.88c-0.25-0.37-0.71-3.29-0.8-4.26c0.06-0.17,0.74-0.34,0.88-0.26C263.3,36.7,263.86,37.83,264.83,38.52"></path>
		<path class="st0" d="M289.71,38.1c1.76-1.42,2.39-3.78,2.39-6.39c0-3.07-1.02-6.02-3.27-7.58c-1.02-0.71-2.24-1.13-3.72-1.13    c-0.99,0-1.84,0.23-2.56,0.62c-2.06,1.22-3.03,3.77-3.03,6.67c0,2.98,1.11,6.21,3.61,7.83c0.99,0.62,2.09,0.96,3.55,0.96    C287.86,39.08,288.97,38.72,289.71,38.1 M279.18,37.75c-1.71-1.87-2.45-4.26-2.45-6.81c0-2.1,0.63-3.92,1.76-5.48    c1.56-2.16,4.66-3.6,7.59-3.6c5.78,0,8.71,4.22,8.71,8.85c0,2.5-0.57,4.29-1.73,5.9c-1.76,2.44-4.63,3.72-7.47,3.72    C282.87,40.34,280.65,39.34,279.18,37.75"></path>
		<path class="st0" d="M295.97,44.25c1.33-1.22,2.38-2.78,2.35-4.37c-0.03-0.68-0.36-1.51-0.85-2.24c0.11-0.31,1.37-1.53,1.7-1.68    c0.09-0.06,0.45-0.06,0.54,0c0.28,0.23,0.71,1.11,0.73,2.27c0.06,2.64-2.04,5.36-3.69,6.41c-0.16,0.03-0.57-0.12-0.74-0.23    C296,44.39,295.95,44.28,295.97,44.25"></path>
		<path class="st0" d="M319.24,30.16c0-0.14,0.07-0.28,0.15-0.32c0.31,0.07,0.84,0.1,1.37,0.1c1.06,0,1.76-0.17,2.47-0.53    c1.63-0.91,2.15-2.53,2.15-4.55c0-3.24-1.62-5.6-5.64-5.6c-0.35,0-1.24,0.03-1.49,0.17c-0.1,0.07-0.25,0.24-0.28,0.49    c-0.04,0.81-0.07,2.64-0.07,8.35c0,4.02-0.04,6.7,0.03,8.5c0.11,1.27,0.32,1.55,1.31,1.81c0.52,0.13,1.27,0.21,2.12,0.31    c0.14,0.14,0.07,0.92-0.04,1.02c-1.02,0-3.5-0.1-4.87-0.1c-1.62,0-3.81,0.1-4.62,0.1c-0.14-0.14-0.14-0.88-0.04-0.99    c0.74-0.1,1.45-0.18,1.87-0.28c0.84-0.25,1.02-0.63,1.09-2.05c0.08-1.2,0.12-4.09,0.12-7.89c0-4.06,0.03-6.46-0.04-7.56    c-0.08-1.23-0.29-1.66-1.27-1.86c-0.46-0.11-1.02-0.22-1.73-0.29c-0.14-0.17-0.04-0.88,0.07-0.99c0.56,0,2.51,0.11,4.16,0.11    c2.12,0,3.64-0.07,5.72-0.07c1.19,0,3.31,0.25,4.69,1.34c1.16,0.91,2.18,2.43,2.18,4.76c0,3.24-1.9,5.25-3.73,6.13    c-1.23,0.64-2.51,0.89-3.7,0.89c-0.6,0-1.1-0.03-1.52-0.17C319.48,30.87,319.28,30.34,319.24,30.16"></path>
		<path class="st0" d="M332.1,22.29c0.82,0,1.76,0.08,3.63,0.08c1.9,0,2.95-0.08,3.52-0.08c0.15,0.11,0.15,0.68,0,0.79    c-0.71,0.09-1.08,0.17-1.45,0.25c-0.68,0.18-0.73,0.54-0.76,1.13c-0.05,1.03-0.05,3.47-0.08,6.13c0,3.52,0,5.87,0.08,7.1    c0.03,0.45,0.37,0.74,0.54,0.79c0.74,0.26,3.49,0.26,4.74,0.23c0.6-0.03,1.12-0.23,1.67-1.05c0.52-0.68,1.2-1.93,1.68-3.12    c0.22-0.06,0.74,0.14,0.84,0.31c-0.2,1.11-0.99,3.89-1.47,4.74c-0.12,0.23-0.4,0.37-1.17,0.37c-1.82,0-6.7-0.14-8.15-0.14    c-1.33,0-3.49,0.09-4.06,0.09c-0.11-0.09-0.15-0.74,0-0.83c0.86-0.08,1.34-0.14,1.88-0.25c0.62-0.17,0.83-0.49,0.89-1.17    c0.05-0.76,0.12-3.54,0.12-7.24c0-3,0-4.71-0.06-5.45c-0.03-1.16-0.14-1.47-0.91-1.65c-0.37-0.08-1.05-0.19-1.57-0.25    C331.9,22.96,331.96,22.37,332.1,22.29"></path>
		<path class="st0" d="M356.93,25.33c-0.48,1.41-1.64,4.62-2.13,6.12c0,0.11,0.02,0.17,0.11,0.2c0.28,0.03,1.19,0.03,2.27,0.03    c0.68,0,1.62,0,1.9-0.03c0.06,0,0.15-0.11,0.09-0.22c-0.56-1.76-1.65-4.91-2.1-6.14C357.04,25.29,356.96,25.26,356.93,25.33     M351.51,36.44c1.44-3.44,4.12-10.67,4.74-12.48c0.23-0.6,0.43-1.23,0.49-1.62c0.11,0,0.45,0.03,0.93,0.03    c0.57,0,0.85-0.03,0.94-0.03c0.11,0.43,0.25,0.94,0.45,1.48c0.57,1.61,3.72,10.61,4.7,12.97c0.83,1.9,1.02,2.05,3.08,2.3    c0.11,0.09,0.03,0.71-0.07,0.83c-0.73-0.03-2.18-0.09-3.45-0.09c-1.4,0-3.13,0.06-3.72,0.09c-0.09-0.12-0.15-0.71-0.03-0.83    c0.62-0.08,1.14-0.17,1.56-0.31c0.37-0.17,0.4-0.46,0.31-0.71c-0.34-1.22-1.19-3.6-1.7-4.88c-0.03-0.09-0.2-0.2-0.26-0.2    c-0.4-0.02-1.39,0-2.66,0c-1.82,0-2.01-0.02-2.36,0c-0.12,0-0.26,0.17-0.29,0.26c-0.56,1.53-1.47,3.92-1.53,4.59    c-0.03,0.48,0.03,0.8,0.91,1.03c0.33,0.08,0.82,0.17,1.36,0.22c0.08,0.12,0.03,0.71-0.05,0.83c-0.6,0-2.05-0.09-3.64-0.09    c-1.61,0-2.49,0.09-3.04,0.09c-0.11-0.12-0.11-0.71,0-0.83C350.23,38.83,350.57,38.63,351.51,36.44"></path>
		<path class="st0" d="M367.81,22.29c0.72,0,2.13,0.08,3.55,0.08c0.57,0,1.06,0,1.28-0.03c0.11,0.28,0.28,0.6,1.02,1.53    c2.89,3.63,8.71,10.73,10.07,12.32c0.05,0.03,0.08,0,0.11-0.03c0-3.88,0.03-9.19-0.11-11.24c-0.06-0.83-0.22-1.28-1.07-1.51    c-0.51-0.14-1.13-0.25-1.91-0.34c-0.11-0.11-0.08-0.71,0-0.79c0.74,0,2.05,0.08,3.77,0.08c0.97,0,2.64-0.08,3.01-0.08    c0.11,0.08,0.11,0.68,0,0.79c-0.51,0.09-0.88,0.17-1.24,0.28c-0.74,0.26-0.91,0.77-0.97,1.54c-0.17,2.19-0.14,5.82-0.22,11.18    c0,1.31,0.02,2.95,0.05,3.89c-0.31-0.02-1.62-0.02-1.96,0c-1.51-2.16-9.31-11.92-11.01-14.04c-0.03-0.03-0.12,0-0.12,0.03    c-0.05,2.92-0.05,9.56,0.03,11.15c0.06,1.14,0.42,1.53,1.17,1.7c0.42,0.14,0.99,0.2,1.7,0.28c0.11,0.12,0.02,0.71-0.06,0.83    c-0.68,0-1.96-0.09-3.55-0.09c-1.73,0-2.81,0.09-3.4,0.09c-0.09-0.09-0.09-0.74,0-0.83c0.62-0.06,1.08-0.14,1.51-0.25    c0.64-0.2,1.02-0.57,1.07-1.67c0.11-1.48,0.2-6.11,0.26-12.07c0-0.42-0.14-1.05-0.76-1.39c-0.55-0.37-1.16-0.51-2.28-0.62    C367.67,23,367.7,22.37,367.81,22.29"></path>
		<path class="st0" d="M403.51,23.51c-0.94-0.46-2.16-0.63-3.52-0.63c-4.11,0-6.47,3.04-6.47,7.83c0,4.54,2.53,8.37,7.58,8.37    c1.22,0,2.41-0.31,3.12-0.96c0.71-0.57,1.4-1.53,2.13-2.78c0.14,0,0.63,0.25,0.69,0.46c-0.29,1.22-1.51,3.43-2.16,3.82    c-0.83,0.29-2.62,0.72-4.35,0.72c-6.33,0-9.85-3.47-9.85-9.37c0-3.06,1.39-6.12,4.51-7.8c1.51-0.83,3.35-1.3,5.77-1.3    c2.41,0,4.31,0.47,5.59,0.56c-0.17,0.99-0.42,3.09-0.45,4.37c-0.11,0.11-0.85,0.2-0.87,0.05    C404.93,24.59,404.55,24.01,403.51,23.51"></path>
		<path class="st0" d="M409.72,22.29c0.68,0,2.1,0.08,3.63,0.08c1.9,0,2.76-0.08,3.55-0.08c0.08,0.14,0.08,0.71-0.03,0.79    c-0.51,0.09-1.05,0.17-1.36,0.25c-0.57,0.18-0.77,0.4-0.79,1.31c-0.06,1.05-0.03,2.5-0.03,5.28c0,0.12,0.05,0.26,0.14,0.29    c0.2,0.03,0.71,0.05,4.82,0.05c3.12-0.03,4.2-0.03,4.46-0.05c0.09,0,0.17-0.12,0.17-0.18c0-1.47,0-4.69-0.06-5.7    c-0.03-0.45-0.18-0.79-0.56-0.94c-0.43-0.14-0.94-0.22-1.68-0.31c-0.14-0.11-0.11-0.68,0.04-0.82c0.66,0,2.03,0.12,3.54,0.12    c1.42,0,3.07-0.08,3.52-0.08c0.09,0.11,0.12,0.68,0,0.79c-0.62,0.09-1.11,0.17-1.48,0.28c-0.62,0.2-0.73,0.52-0.79,1.54    c-0.05,1-0.05,2.67-0.05,6.05c0,2.47,0,5.59,0.05,6.56c0.08,0.79,0.26,1.1,0.79,1.27c0.4,0.14,0.94,0.23,1.82,0.31    c0.08,0.12,0.06,0.74-0.11,0.83c-0.85,0-2.36-0.09-3.8-0.09c-1.45,0-2.86,0.06-3.61,0.09c-0.11-0.12-0.11-0.68,0-0.83    c0.74-0.08,1.17-0.14,1.62-0.28c0.51-0.14,0.68-0.43,0.74-1.3c0.03-0.83,0.03-3.92,0.03-5.71c0-0.08-0.08-0.2-0.17-0.2    c-0.54-0.03-2.95-0.03-4.51-0.03c-2.22,0-4.54,0-4.82,0.03c-0.05,0-0.08,0.14-0.08,0.17c0,1.56,0,4.83,0.03,5.43    c0.05,0.96,0.17,1.35,0.88,1.56c0.42,0.11,0.85,0.23,1.7,0.34c0.11,0.14,0,0.77-0.11,0.83c-0.54,0-1.87-0.09-3.69-0.09    c-1.68,0-3.2,0.09-3.77,0.09c-0.12-0.12-0.12-0.71-0.03-0.83c0.67-0.08,1.13-0.17,1.53-0.25c0.82-0.26,0.9-0.77,0.99-2.08    c0-0.96,0.03-3.37,0.03-5.84c0-2.75-0.03-5.76-0.06-6.28c-0.06-0.79-0.23-1.1-0.79-1.25c-0.43-0.14-0.95-0.19-1.71-0.31    C409.57,22.96,409.6,22.4,409.72,22.29"></path>
		<path class="st0" d="M439.46,25.33c-0.48,1.41-1.63,4.62-2.12,6.12c0,0.11,0.03,0.17,0.11,0.2c0.28,0.03,1.2,0.03,2.27,0.03    c0.68,0,1.62,0,1.91-0.03c0.05,0,0.14-0.11,0.08-0.22c-0.56-1.76-1.64-4.91-2.1-6.14C439.58,25.29,439.5,25.26,439.46,25.33     M434.05,36.44c1.45-3.44,4.12-10.67,4.74-12.48c0.23-0.6,0.43-1.23,0.48-1.62c0.11,0,0.46,0.03,0.94,0.03    c0.57,0,0.84-0.03,0.94-0.03c0.12,0.43,0.25,0.94,0.45,1.48c0.57,1.61,3.72,10.61,4.71,12.97c0.82,1.9,1.03,2.05,3.07,2.3    c0.11,0.09,0.02,0.71-0.06,0.83c-0.73-0.03-2.18-0.09-3.46-0.09c-1.39,0-3.13,0.06-3.71,0.09c-0.09-0.12-0.15-0.71-0.03-0.83    c0.62-0.08,1.14-0.17,1.56-0.31c0.37-0.17,0.4-0.46,0.31-0.71c-0.34-1.22-1.18-3.6-1.71-4.88c-0.02-0.09-0.19-0.2-0.25-0.2    c-0.4-0.02-1.39,0-2.67,0c-1.82,0-2.01-0.02-2.35,0c-0.12,0-0.26,0.17-0.29,0.26c-0.57,1.53-1.47,3.92-1.54,4.59    c-0.02,0.48,0.03,0.8,0.91,1.03c0.34,0.08,0.82,0.17,1.36,0.22c0.08,0.12,0.03,0.71-0.05,0.83c-0.6,0-2.04-0.09-3.64-0.09    c-1.61,0-2.5,0.09-3.03,0.09c-0.11-0.12-0.11-0.71,0-0.83C432.77,38.83,433.12,38.63,434.05,36.44"></path>
		<path class="st0" d="M455.9,23.42c-0.08,0.06-0.2,0.28-0.2,0.42c-0.05,0.97-0.05,4.83-0.05,7.04c0,0.06,0.05,0.14,0.14,0.14    c1.9,0.06,3.11,0,3.66-0.23c0.91-0.43,1.84-1.45,1.84-3.3c0-2.66-1.36-4.23-4.4-4.23C456.67,23.28,456.18,23.3,455.9,23.42     M450.79,22.29c0.67,0,2.39,0.08,3.26,0.08c2.11,0,3.58-0.06,4.71-0.06c3.33,0,5.08,1.99,5.08,4.37c0,2.39-1.53,3.8-3.23,4.56    c-0.06,0.06-0.08,0.15-0.06,0.2c1,1.6,3.23,4.71,4.63,6.13c1.16,1.19,1.56,1.34,3.27,1.56c0.06,0.08,0,0.74-0.17,0.8    c-1.22,0.06-3.49-0.03-4.54-0.55c-0.42-0.2-0.87-0.53-1.35-1.13c-1.08-1.28-2.81-4.12-3.89-5.65c-0.2-0.29-0.49-0.43-0.71-0.43    c-0.4-0.06-1.61-0.03-2.01-0.03c-0.06,0-0.11,0.15-0.11,0.17c0,1.57,0,4.21,0.05,5.14c0.06,0.96,0.26,1.22,0.91,1.37    c0.42,0.08,0.93,0.16,1.59,0.25c0.15,0.12,0.09,0.71-0.06,0.83c-0.54,0-1.9-0.09-3.77-0.09c-1.84,0-3.06,0.09-3.61,0.09    c-0.14-0.12-0.14-0.71,0-0.83c0.63-0.08,1.08-0.14,1.45-0.22c0.68-0.14,0.91-0.49,0.97-1.56c0.02-0.65,0.05-4.51,0.05-6.08    c0-2.89,0-5.73-0.03-6.61c-0.02-0.79-0.22-1.14-0.94-1.31c-0.42-0.08-0.96-0.17-1.53-0.23C450.62,22.96,450.67,22.34,450.79,22.29    "></path>
		<path class="st0" d="M479.67,39.91c-0.82,0-2.5-0.09-4.22-0.09c-2.1,0-3.55,0.09-4.29,0.09c-0.11-0.14-0.08-0.71,0-0.83    c0.88-0.08,1.59-0.17,2.02-0.28c0.92-0.17,1.06-0.74,1.08-2.05c0.08-2.21,0.11-8.29,0.11-13c0-0.11-0.11-0.22-0.19-0.22    c-0.48-0.02-2.59-0.02-3.67,0c-0.48,0.03-0.85,0.22-1.19,0.79c-0.34,0.54-0.71,1.57-1.11,2.64c-0.11,0.08-0.82-0.09-0.88-0.23    c0.23-1.19,0.51-3.46,0.56-4.68c0-0.05,0.26-0.14,0.32-0.11c0.51,0.26,1.25,0.43,2.3,0.43H481c1.31,0,1.93-0.06,2.75-0.43    c0.09,0,0.26,0.08,0.28,0.15c-0.28,0.99-0.5,3.26-0.65,4.79c-0.09,0.14-0.82,0.14-0.91,0.03c-0.09-0.99-0.23-1.99-0.46-2.53    c-0.22-0.56-0.56-0.8-1.09-0.82c-1.34-0.03-3.33-0.03-3.98,0c-0.08,0.03-0.14,0.14-0.14,0.23c0,4.17,0,12.03,0.08,13.48    c0.08,1,0.32,1.33,0.97,1.5c0.45,0.14,0.94,0.2,1.93,0.31C479.87,39.23,479.81,39.85,479.67,39.91"></path>
		<path class="st0" d="M497.73,25.69c0,1.28,0.69,2.58,1.82,3.6c0.03,0.04,0.14,0.06,0.2,0c1.42-1.07,2.24-2.21,2.24-3.63    c0-1.16-0.73-2.58-2.21-2.58C498.71,23.08,497.73,23.98,497.73,25.69 M497.99,31.2c-1.09,0.96-2.02,1.84-2.02,3.46    c0,2.33,1.9,3.86,4.23,3.86c1.36,0,2.89-0.63,3.91-1.84c0.06-0.08,0.08-0.14,0.03-0.2c-1.99-1.64-4.4-3.63-5.99-5.27    C498.14,31.2,498.02,31.17,497.99,31.2 M503.92,25.6c0,1.48-0.88,2.47-3.58,4.26c-0.06,0.03-0.06,0.11-0.03,0.14    c0.8,0.82,3.35,3,5.31,4.42c0.05,0.06,0.15,0.06,0.17,0c0.6-0.85,1.22-2.24,1.59-3.37c0.14-0.37,0.2-0.85-0.31-1.05    c-0.29-0.12-0.86-0.23-1.45-0.31c-0.14-0.03-0.09-0.74,0.02-0.83c0.43,0,1.51,0.09,2.69,0.09c1.65,0,2.59-0.09,2.9-0.09    c0.09,0.11,0.12,0.74-0.02,0.85c-0.4,0.06-0.88,0.14-1.14,0.22c-0.6,0.17-0.88,0.51-1.14,0.91c-1.02,1.76-1.69,3.17-2.38,4.08    c-0.03,0.03,0.03,0.17,0.05,0.17c1.62,1.19,3.75,2.78,4.28,3.41c0,0.57-0.87,2.04-1.13,2.33c-0.1,0.08-0.4,0.08-0.46,0.03    c-0.17-0.34-0.63-0.77-0.85-0.99l-3.41-2.72c-0.02-0.06-0.06-0.03-0.11,0c-1.93,2.33-3.98,3.12-5.93,3.12c-3.26,0-5.37-2.1-5.37-5    c0-1.53,0.82-2.64,3.8-4.71c0.06-0.06,0.06-0.12,0.03-0.15c-0.93-1.1-1.61-2.24-1.61-3.89c0-2.58,2.1-4.37,4.42-4.37    C502.39,22.17,503.92,23.65,503.92,25.6"></path>
		<path class="st0" d="M521.81,18.03c0.88,0,2.65,0.11,4.41,0.11c0.71,0,1.3,0,1.58-0.04c0.15,0.35,0.35,0.74,1.27,1.9    c3.6,4.52,10.82,13.33,12.52,15.31c0.07,0.04,0.1,0,0.14-0.04c0-4.83,0.04-11.43-0.14-13.96c-0.07-1.02-0.29-1.59-1.35-1.87    c-0.63-0.17-1.41-0.32-2.36-0.43c-0.14-0.14-0.11-0.88,0-0.99c0.92,0,2.54,0.11,4.69,0.11c1.2,0,3.28-0.11,3.74-0.11    c0.14,0.11,0.14,0.85,0,0.99c-0.63,0.1-1.09,0.21-1.56,0.35c-0.91,0.32-1.13,0.96-1.19,1.91c-0.22,2.71-0.17,7.23-0.29,13.9    c0,1.62,0.03,3.67,0.07,4.83c-0.39-0.03-2-0.03-2.43,0c-1.87-2.68-11.57-14.81-13.68-17.46c-0.04-0.03-0.14,0-0.14,0.04    c-0.07,3.63-0.07,11.89,0.04,13.86c0.07,1.41,0.52,1.9,1.44,2.12c0.54,0.17,1.24,0.25,2.12,0.35c0.14,0.14,0.04,0.88-0.07,1.02    c-0.84,0-2.43-0.1-4.41-0.1c-2.15,0-3.49,0.1-4.24,0.1c-0.1-0.1-0.1-0.91,0-1.02c0.78-0.07,1.34-0.18,1.88-0.31    c0.81-0.25,1.27-0.72,1.34-2.09c0.13-1.83,0.25-7.58,0.32-14.98c0-0.53-0.19-1.31-0.96-1.73c-0.67-0.46-1.45-0.64-2.83-0.78    C521.63,18.91,521.66,18.13,521.81,18.03"></path>
		<path class="st0" d="M562.54,18.23c0.05,0.08,0.05,0.34,0,0.37c-0.4,0.43-4.43,2.73-4.68,2.73c-0.09,0-0.48-0.54-0.42-0.59    c0.31-0.43,2.97-3.21,3.4-3.47C561.26,17.29,562.28,17.91,562.54,18.23 M549.03,22.29c0.51,0,2.27,0.08,3.61,0.08    c1.33,0,2.64-0.08,3.34-0.08c0.12,0.08,0.12,0.71,0,0.79c-0.6,0.12-0.99,0.14-1.33,0.25c-0.65,0.2-0.82,0.51-0.85,1.51    c-0.05,2.78-0.03,6.61,0.03,8.12c0.05,1.19,0.22,2.27,0.53,2.89c0.58,1.59,2.22,2.87,4.92,2.87c2.36,0,4.65-0.71,4.91-5.19    c0.11-2.16,0.17-5.33,0.05-8.23c-0.02-1.42-0.34-1.78-1.27-1.96c-0.4-0.11-0.83-0.14-1.45-0.25c-0.12-0.11-0.08-0.71,0.03-0.79    c0.51,0,1.76,0.08,3.4,0.08c1.28,0,2.56-0.08,3.04-0.08c0.09,0.08,0.11,0.74,0,0.79c-0.43,0.12-0.89,0.17-1.19,0.28    c-0.82,0.23-0.99,0.74-1.02,2.11c-0.17,5.82-0.09,7.89-0.57,9.88c-0.82,3.83-3.89,5-6.87,5c-4.49,0-6.48-2.05-6.84-5.14    c-0.23-1.79-0.18-9-0.23-10.44c-0.02-0.74-0.2-1.19-0.79-1.4c-0.31-0.11-0.97-0.19-1.48-0.28C548.89,23,548.91,22.37,549.03,22.29    "></path>
		<path class="st0" d="M583.58,18.17c0.09-0.09,0.26,0.62,0.23,0.74c-0.4,0.68-1.84,1.7-2.95,1.7c-0.43,0-0.94-0.14-1.88-0.45    c-0.34-0.09-0.71-0.23-1.1-0.23c-0.54,0-1.1,0.35-1.73,0.85c-0.08,0.05-0.39-0.57-0.31-0.66c0.31-0.45,1.85-1.7,2.66-1.7    c0.52,0,1.02,0.14,1.73,0.36c0.49,0.17,1.06,0.32,1.37,0.32C581.97,19.11,582.65,18.99,583.58,18.17 M569.74,22.29    c0.71,0,2.13,0.08,3.55,0.08c0.57,0,1.05,0,1.27-0.03c0.11,0.28,0.29,0.6,1.02,1.53c2.9,3.63,8.72,10.73,10.08,12.32    c0.06,0.03,0.09,0,0.11-0.03c0-3.88,0.03-9.19-0.11-11.24c-0.05-0.83-0.23-1.28-1.08-1.51c-0.51-0.14-1.14-0.25-1.9-0.34    c-0.11-0.11-0.09-0.71,0-0.79c0.74,0,2.04,0.08,3.77,0.08c0.97,0,2.64-0.08,3-0.08c0.12,0.08,0.12,0.68,0,0.79    c-0.5,0.09-0.88,0.17-1.24,0.28c-0.74,0.26-0.91,0.77-0.97,1.54c-0.17,2.19-0.14,5.82-0.23,11.18c0,1.31,0.03,2.95,0.06,3.89    c-0.31-0.02-1.62-0.02-1.96,0c-1.5-2.16-9.31-11.92-11.01-14.04c-0.03-0.03-0.12,0-0.12,0.03c-0.05,2.92-0.05,9.56,0.03,11.15    c0.06,1.14,0.43,1.53,1.17,1.7c0.43,0.14,0.99,0.2,1.7,0.28c0.12,0.12,0.03,0.71-0.06,0.83c-0.68,0-1.96-0.09-3.55-0.09    c-1.73,0-2.81,0.09-3.4,0.09c-0.08-0.09-0.08-0.74,0-0.83c0.63-0.06,1.08-0.14,1.51-0.25c0.65-0.2,1.02-0.57,1.07-1.67    c0.12-1.48,0.21-6.11,0.26-12.07c0-0.42-0.14-1.05-0.77-1.39c-0.54-0.37-1.16-0.51-2.27-0.62C569.59,23,569.63,22.37,569.74,22.29    "></path>
		<path class="st0" d="M592.12,22.25c0.71,0,2.19,0.11,3.78,0.11h5.59c1.08,0,2.56-0.03,3.15-0.11c0.03,0.03,0.12,0.11,0.12,0.15    c-0.23,0.85-0.43,2.75-0.52,3.89c-0.11,0.14-0.79,0.14-0.87,0.06c-0.09-0.83-0.2-1.32-0.31-1.74c-0.24-0.68-0.49-0.99-1.43-1.08    c-0.54-0.02-3.97-0.02-4.34,0c-0.19,0.05-0.34,0.4-0.34,0.54c-0.03,1.59-0.03,4.74-0.03,6.02c0,0.09,0.06,0.2,0.15,0.2    c1.14,0.02,3.32,0.02,4.34-0.06c0.62-0.06,0.82-0.4,0.96-0.85c0.11-0.31,0.23-0.71,0.31-1.14c0.18-0.08,0.83-0.05,0.94,0.09    c-0.08,0.57-0.2,1.68-0.2,2.67c0,1.05,0.02,1.88,0.05,2.58c-0.14,0.14-0.81,0.17-0.96,0.03c-0.09-0.6-0.12-0.83-0.23-1.17    c-0.12-0.4-0.32-0.76-0.97-0.82c-0.85-0.08-3.21-0.08-4.25-0.06c-0.06,0-0.15,0.15-0.15,0.23c0,1.31,0,4.31,0.06,5.68    c0,0.56,0.31,0.96,0.65,1.07c0.57,0.15,3.04,0.17,4.2,0.17c1.22-0.03,1.59-0.29,2.1-0.94c0.45-0.51,1.04-1.64,1.42-2.5    c0.14-0.03,0.71,0.17,0.82,0.31c-0.14,0.88-0.77,3.04-1.19,3.89c-0.17,0.3-0.34,0.45-1.75,0.45c-2.38,0-4.43-0.12-7.38-0.12    c-1.9,0-3.32,0.09-4.48,0.09c-0.12-0.09-0.14-0.68-0.03-0.83c0.88-0.08,1.64-0.14,2.15-0.28c0.68-0.17,0.88-0.54,0.97-1.53    c0.03-0.54,0.03-3.66,0.03-6.87c0-2.59,0-5.11-0.03-5.62c-0.06-1.02-0.17-1.27-0.85-1.45c-0.37-0.11-0.85-0.19-1.51-0.28    C591.95,22.94,592.01,22.4,592.12,22.25"></path>
		<path class="st0" d="M622.56,39.65c-0.05,0.11-0.22,0.29-1.33,0.29c-3.98-0.03-7.21-0.09-9.45-0.12    c-0.85,0.03-2.15,0.03-2.87,0.09c-0.06-0.03-0.12-0.45-0.08-0.54c2.36-3.07,9.37-13.39,10.67-15.75c0.03-0.06,0-0.17-0.06-0.17    c-1.34-0.03-5.34-0.03-7.04,0.09c-0.63,0.03-1.17,0.17-1.67,0.93c-0.4,0.63-0.8,1.6-1.19,2.59c-0.11,0.12-0.82-0.14-0.85-0.25    c0.25-1.14,0.56-3.1,0.73-4.71c0.03-0.06,0.37-0.15,0.43-0.09c0.45,0.34,1.15,0.37,2.32,0.37h6.5c1.59,0,3.17,0,4.01-0.08    c0.05,0.05,0.08,0.34,0.08,0.42c-1.28,2.27-8.4,12.89-10.28,15.72c-0.02,0.06,0,0.17,0.06,0.17c0.85,0.15,4.82,0.17,7.04,0.15    c0.59,0,1.05-0.12,1.58-0.65c0.59-0.6,1.3-1.82,2.07-3.55c0.11-0.06,0.77,0.17,0.83,0.34C623.96,35.66,623.05,38.8,622.56,39.65"></path>
		<path class="st0" d="M316.42,87.31c-0.47,0-1.22-0.06-2.35-0.06c-1.16,0-2.07,0.06-2.53,0.06c-0.06-0.06-0.06-0.44,0-0.51    c0.41-0.04,0.78-0.07,1.08-0.12c0.54-0.11,0.65-0.39,0.65-0.97c0.04-0.81,0.05-2.29,0.05-3.79c0-1.66-0.04-3.14-0.05-3.47    c-0.04-0.24-0.11-0.49-0.48-0.53c-0.2-0.01-0.64-0.05-1.01-0.05c-0.05-0.06-0.02-0.42,0.04-0.45c0.9-0.11,2.19-0.49,2.79-0.83    c0.07-0.02,0.21,0.02,0.23,0.07c-0.07,0.54-0.09,0.99-0.09,4.22c0,0.92,0.02,4.1,0.06,4.77c0.03,0.59,0.15,0.91,0.59,1.02    c0.32,0.07,0.59,0.08,1.1,0.16C316.53,86.87,316.49,87.25,316.42,87.31"></path>
		<path class="st0" d="M320.05,79.65c0,2.01,1.16,2.89,2.42,2.89c0.53,0,1-0.17,1.33-0.38c0.14-0.08,0.28-0.27,0.32-0.4    c0.09-0.42,0.1-0.73,0.1-1.03c0-1.95-0.92-3.48-2.3-3.48C320.81,77.25,320.05,78.23,320.05,79.65 M319.18,87.72    c2.81-1.3,4.05-3.06,4.75-4.96c0.02-0.03-0.03-0.09-0.07-0.05c-0.76,0.49-1.83,0.88-2.53,0.88c-1.4,0-2.7-1.34-2.7-3.22    c0-1.21,0.58-2.39,1.64-3.1c0.6-0.41,1.39-0.67,2.16-0.67c2.14,0,3.37,1.89,3.37,4.15c0,3.53-2.81,6.3-6.38,7.44    C319.32,88.18,319.16,87.81,319.18,87.72"></path>
		<path class="st0" d="M333.13,87.31c-0.47,0-1.22-0.06-2.35-0.06c-1.15,0-2.07,0.06-2.52,0.06c-0.07-0.06-0.07-0.44,0-0.51    c0.41-0.04,0.77-0.07,1.07-0.12c0.54-0.11,0.65-0.39,0.65-0.97c0.04-0.81,0.06-2.29,0.06-3.79c0-1.66-0.04-3.14-0.06-3.47    c-0.03-0.24-0.1-0.49-0.47-0.53c-0.21-0.01-0.65-0.05-1.02-0.05c-0.06-0.06-0.02-0.42,0.03-0.45c0.91-0.11,2.19-0.49,2.8-0.83    c0.06-0.02,0.2,0.02,0.22,0.07c-0.07,0.54-0.08,0.99-0.08,4.22c0,0.92,0.02,4.1,0.05,4.77c0.03,0.59,0.14,0.91,0.59,1.02    c0.33,0.07,0.6,0.08,1.11,0.16C333.23,86.87,333.2,87.25,333.13,87.31"></path>
		<path class="st0" d="M337.84,83.23h1.61c0.03,0,0.06-0.05,0.06-0.11l0.08-4.63c0-0.03-0.05-0.03-0.08-0.02    c-0.45,0.62-2.9,4.11-3.21,4.63c-0.01,0.03,0,0.09,0.02,0.09C336.67,83.22,337.2,83.23,337.84,83.23 M341.04,84.23    c-0.03,0-0.07,0.05-0.09,0.11l0.04,3.36c-0.47,0.02-1.17,0.09-1.51,0.18c0.02-1.16,0.03-2.39,0.03-3.55c0-0.06-0.03-0.1-0.06-0.1    h-4.44c-0.02-0.07,0.01-0.49,0.05-0.56c1.12-1.63,4.51-6.14,5.02-6.9c0.1-0.04,0.78-0.14,0.86-0.12v6.45    c0,0.03,0.04,0.11,0.09,0.11c0.91,0,1.5-0.02,2.02-0.04c-0.11,0.33-0.23,0.82-0.23,1.08C342.23,84.25,341.64,84.23,341.04,84.23"></path>
		<path class="st1" d="M221.66,58.32l-1.5-4.18l-1.45,4.18H221.66z M218.44,59.12l-0.82,2.67c-0.12,0.44-0.15,0.58-0.17,0.74    c-0.03,0.65,1.02,0.71,1.5,0.74v0.7c-0.79-0.02-1.59-0.02-2.39-0.04c-0.72,0.02-1.44,0.02-2.16,0.04v-0.7    c0.91-0.02,1.23-0.25,1.44-0.44c0.33-0.31,0.79-1.4,1.29-2.79c0.99-2.71,2.07-5.31,3-8.07c0.31,0.02,0.62,0.04,0.93,0.04    c0.31,0,0.61-0.01,0.91-0.04l3.23,9.14c0.45,1.22,0.6,2.16,2.01,2.16v0.7c-0.92-0.02-1.91-0.02-2.89-0.04    c-0.99,0.02-1.97,0.02-2.84,0.04v-0.7c0.4-0.05,1.46-0.07,1.52-0.63c0.04-0.25-0.14-0.69-0.21-0.91l-0.86-2.61H218.44z"></path>
		<path class="st1" d="M249.29,63.16c2.38,0.12,3.31-0.24,3.31-2.73c0-1.83-0.79-2.42-2.59-2.42h-0.72V63.16z M249.29,57.25h0.83    c1.11,0,2.28-0.46,2.25-2.32c0-1.46-0.61-2.24-2.1-2.24c-0.29,0-0.6,0.01-0.99,0.08V57.25z M245.24,63.27    c1.46,0.01,1.53-0.36,1.53-1.41v-7.78c0-1.11-0.11-1.49-1.53-1.4v-0.71c1.07,0.02,2.16,0.02,3.23,0.03    c1.07-0.01,2.15-0.01,3.22-0.03c1.87,0,3.25,0.44,3.25,2.65c0,1.97-1.36,2.68-3.11,2.87v0.12c2.68,0.06,3.47,1.11,3.47,2.97    c0,2.69-1.96,3.42-4.38,3.39c-0.96-0.02-1.94-0.02-2.91-0.04c-0.93,0.02-1.85,0.02-2.78,0.04V63.27z"></path>
		<path class="st1" d="M283.66,57.93c0-3.19-0.49-5.45-3.25-5.45c-2.77,0-3.25,2.26-3.25,5.45c0,3.18,0.48,5.44,3.25,5.46    C283.17,63.37,283.66,61.11,283.66,57.93 M274.35,57.93c0.02-4.19,1.77-6.18,6.05-6.18c4.29,0,6.03,1.99,6.06,6.18    c-0.03,4.2-1.75,6.19-6.06,6.19C276.1,64.11,274.37,62.13,274.35,57.93"></path>
		<path class="st1" d="M311.58,58.49c1.36,0.02,2.34,0.02,3.33,0.03c0.99-0.01,1.98-0.01,2.53-0.03v0.71    c-1.5-0.07-1.27,0.86-1.27,1.4v2.76c-1.23-0.03-2.35,0.46-3.51,0.64c-0.54,0.09-1.06,0.1-1.61,0.1c-3.96,0-5.83-2.01-5.83-5.93    c0-4.5,1.85-6.43,6.4-6.43c1.56,0,2.72,0.18,4.24,0.5v2.97h-1.23c-0.33-2.17-0.55-2.75-3.01-2.75c-3.26,0-3.64,3.04-3.64,5.75    c0,2.35,0.51,5.19,3.45,5.19c0.65,0,1.68-0.21,2.09-0.76c0.12-0.16,0.12-0.34,0.12-2.04c-0.04-1.11,0.29-1.48-2.07-1.4V58.49z"></path>
		<path class="st1" d="M342.74,58.32l-1.48-4.18l-1.46,4.18H342.74z M339.53,59.12l-0.82,2.67c-0.12,0.44-0.16,0.58-0.17,0.74    c-0.04,0.65,1.02,0.71,1.5,0.74v0.7c-0.8-0.02-1.59-0.02-2.38-0.04c-0.73,0.02-1.44,0.02-2.17,0.04v-0.7    c0.92-0.02,1.24-0.25,1.44-0.44c0.33-0.31,0.79-1.4,1.3-2.79c0.99-2.71,2.07-5.31,2.99-8.07c0.31,0.02,0.62,0.04,0.93,0.04    c0.32,0,0.61-0.01,0.92-0.04l3.24,9.14c0.46,1.22,0.61,2.16,2.01,2.16v0.7c-0.92-0.02-1.9-0.02-2.89-0.04    c-0.99,0.02-1.97,0.02-2.83,0.04v-0.7c0.4-0.05,1.45-0.07,1.51-0.63c0.04-0.25-0.13-0.69-0.2-0.91l-0.86-2.61H339.53z"></path>
		<path class="st1" d="M370.14,63.16c0.29,0.03,0.57,0.05,0.83,0.05c3.41,0,4.01-2.24,4.01-5.23c0-2.54-0.32-5.05-3.3-5.28    c-0.43-0.01-0.95,0-1.54,0.09V63.16z M367.61,54.08c-0.03-0.97,0.25-1.4-1.37-1.4v-0.71c0.66,0.02,1.65,0.02,2.63,0.04    c1.37-0.01,2.72-0.01,4.09-0.04c3.8,0,4.79,2.23,4.79,5.75c0,3.99-1.07,6.25-5.27,6.25c-1.2-0.02-2.41-0.02-3.61-0.04    c-0.98,0.02-1.97,0.02-2.63,0.04v-0.7c1.61,0,1.33-0.44,1.37-1.41V54.08z"></path>
		<path class="st1" d="M405.7,57.93c0-3.19-0.49-5.45-3.25-5.45c-2.77,0-3.25,2.26-3.25,5.45c0,3.18,0.49,5.44,3.25,5.46    C405.21,63.37,405.7,61.11,405.7,57.93 M396.4,57.93c0.02-4.19,1.76-6.18,6.05-6.18c4.29,0,6.03,1.99,6.05,6.18    c-0.02,4.2-1.75,6.19-6.05,6.19C398.14,64.11,396.41,62.13,396.4,57.93"></path>
		<path class="st1" d="M435.65,55.02h-1.25c-0.08-1.5-0.58-2.53-2.28-2.53c-1.33,0-2.32,0.63-2.32,2.05c0,1.8,2.13,1.91,3.42,2.34    c1.87,0.58,3.05,1.2,3.05,3.39c0,2.94-2.55,3.86-5.07,3.86c-1.4,0-2.58-0.24-3.86-0.61v-3.03h1.31c0.16,1.92,0.58,2.93,2.69,2.93    c1.37,0,2.42-0.85,2.42-2.25c0-0.91-0.38-1.52-1.26-1.88c-2.25-0.8-5.16-0.92-5.16-4.02c0-2.59,2.48-3.5,4.7-3.5    c1.04,0,2.39,0.18,3.6,0.57V55.02z"></path>
		<polyline class="st2" points="203.16,55.12 24.6,55.12 24.6,58.85 203.16,58.85   "></polyline>
		<polyline class="st2" points="624.76,55.12 446.2,55.12 446.2,58.85 624.76,58.85   "></polyline>
	</g>
</g>
</svg>
